<mxfile host="app.diagrams.net" agent="Mozilla/5.0 (X11; Ubuntu; Linux x86_64; rv:130.0) Gecko/20100101 Firefox/130.0" version="24.7.17">
  <diagram id="GNU3i8hCxYjH3E0Nk9u4" name="Page-1">
    <mxGraphModel dx="1634" dy="1086" grid="1" gridSize="10" guides="1" tooltips="1" connect="1" arrows="1" fold="1" page="1" pageScale="1" pageWidth="850" pageHeight="1100" math="0" shadow="0">
      <root>
        <mxCell id="0" />
        <mxCell id="1" parent="0" />
        <mxCell id="ebhqw7w70b1g1X7fbuDB-84" style="rounded=0;orthogonalLoop=1;jettySize=auto;html=1;entryX=0;entryY=0.5;entryDx=0;entryDy=0;entryPerimeter=0;" parent="1" target="ebhqw7w70b1g1X7fbuDB-31" edge="1">
          <mxGeometry relative="1" as="geometry">
            <mxPoint x="909" y="280" as="sourcePoint" />
          </mxGeometry>
        </mxCell>
        <mxCell id="ebhqw7w70b1g1X7fbuDB-86" style="edgeStyle=orthogonalEdgeStyle;rounded=0;orthogonalLoop=1;jettySize=auto;html=1;entryX=0;entryY=0.5;entryDx=0;entryDy=0;entryPerimeter=0;curved=1;exitX=0.991;exitY=0.364;exitDx=0;exitDy=0;exitPerimeter=0;" parent="1" source="ebhqw7w70b1g1X7fbuDB-30" target="ebhqw7w70b1g1X7fbuDB-32" edge="1">
          <mxGeometry relative="1" as="geometry">
            <mxPoint x="910" y="295" as="sourcePoint" />
            <Array as="points">
              <mxPoint x="1000" y="295" />
              <mxPoint x="1000" y="320" />
            </Array>
          </mxGeometry>
        </mxCell>
        <mxCell id="ebhqw7w70b1g1X7fbuDB-87" style="edgeStyle=orthogonalEdgeStyle;rounded=0;orthogonalLoop=1;jettySize=auto;html=1;entryX=0;entryY=0.5;entryDx=0;entryDy=0;entryPerimeter=0;curved=1;exitX=0.991;exitY=0.497;exitDx=0;exitDy=0;exitPerimeter=0;" parent="1" source="ebhqw7w70b1g1X7fbuDB-30" target="ebhqw7w70b1g1X7fbuDB-33" edge="1">
          <mxGeometry relative="1" as="geometry">
            <Array as="points">
              <mxPoint x="990" y="307" />
              <mxPoint x="990" y="362" />
            </Array>
          </mxGeometry>
        </mxCell>
        <mxCell id="ebhqw7w70b1g1X7fbuDB-88" style="edgeStyle=orthogonalEdgeStyle;rounded=0;orthogonalLoop=1;jettySize=auto;html=1;entryX=0;entryY=0.5;entryDx=0;entryDy=0;entryPerimeter=0;curved=1;exitX=0.991;exitY=0.64;exitDx=0;exitDy=0;exitPerimeter=0;" parent="1" source="ebhqw7w70b1g1X7fbuDB-30" target="ebhqw7w70b1g1X7fbuDB-34" edge="1">
          <mxGeometry relative="1" as="geometry">
            <mxPoint x="910" y="319" as="sourcePoint" />
          </mxGeometry>
        </mxCell>
        <mxCell id="ebhqw7w70b1g1X7fbuDB-50" value="" style="rounded=1;whiteSpace=wrap;html=1;fillColor=none;strokeColor=#00994D;glass=0;shadow=1;" parent="1" vertex="1">
          <mxGeometry x="740" y="240" width="410" height="240" as="geometry" />
        </mxCell>
        <mxCell id="ebhqw7w70b1g1X7fbuDB-82" value="" style="whiteSpace=wrap;html=1;shape=mxgraph.basic.document;fillColor=#d5e8d4;strokeColor=#82b366;shadow=1;" parent="1" vertex="1">
          <mxGeometry x="1050" y="431.88" width="70" height="28" as="geometry" />
        </mxCell>
        <mxCell id="ebhqw7w70b1g1X7fbuDB-14" value="" style="rounded=1;whiteSpace=wrap;html=1;fillColor=none;dashed=1;strokeColor=#1A06CC;dashPattern=8 8;shadow=1;" parent="1" vertex="1">
          <mxGeometry x="210" y="240" width="170" height="240" as="geometry" />
        </mxCell>
        <mxCell id="ebhqw7w70b1g1X7fbuDB-15" value="" style="rounded=1;whiteSpace=wrap;html=1;fillColor=none;strokeColor=#FF0000;textShadow=0;shadow=1;" parent="1" vertex="1">
          <mxGeometry x="480" y="240" width="180" height="240" as="geometry" />
        </mxCell>
        <mxCell id="ebhqw7w70b1g1X7fbuDB-71" style="rounded=0;orthogonalLoop=1;jettySize=auto;html=1;dashed=1;" parent="1" target="ebhqw7w70b1g1X7fbuDB-24" edge="1">
          <mxGeometry relative="1" as="geometry">
            <mxPoint x="360" y="270" as="sourcePoint" />
          </mxGeometry>
        </mxCell>
        <mxCell id="ebhqw7w70b1g1X7fbuDB-6" value="" style="shape=image;verticalLabelPosition=bottom;labelBackgroundColor=default;verticalAlign=top;aspect=fixed;imageAspect=0;image=https://websitev3-p-eu.figstatic.com/assets-v3/6ee175759b2914594e733fbb9ab8edb65bdb7a69/static/media/defaultLogo.30adffde.png;shadow=0;" parent="1" vertex="1">
          <mxGeometry x="246.82999999999998" y="255.13" width="96.35" height="30" as="geometry" />
        </mxCell>
        <mxCell id="ebhqw7w70b1g1X7fbuDB-9" value="" style="shape=image;verticalLabelPosition=bottom;labelBackgroundColor=default;verticalAlign=top;aspect=fixed;imageAspect=0;image=data:image/png,iVBORw0KGgoAAAANSUhEUgAAAM0AAABhCAYAAAB1YiX8AAAABHNCSVQICAgIfAhkiAAAABl0RVh0U29mdHdhcmUAZ25vbWUtc2NyZWVuc2hvdO8Dvz4AAAAudEVYdENyZWF0aW9uIFRpbWUAVGh1IDAzIE9jdCAyMDI0IDA0OjAxOjAzIEFNIENFU1TkdDCeAAAgAElEQVR4nO2dd1hUV/rHv9NghhkGRHrvICqCFRUbYhdFLFiTGNOT/WVLdtM2u9lN2+zGPPvbX/qmx4YRUFCwYMeGiIgiIm2o0ssMw8zADPz+uIDcMgNDMWG4n+fh4bnn3HvumZn73vOe97znfTn46MsusLCwDBjuL90BFpbRBis0LCxGwgoNC4uRsELDwmIkrNCwsBgJKzQsLEbCCg0Li5GwQsPCYiSs0LCwGAkrNCwsRsL/pTswGvCxlmKBqxOC7cbDzVIMN0sJ3CzFcBRbQCZXoFyuRLmiFSVyBW7U1OFMWRVaNO2/aJ/HCc2xyM0Z0xxs4Sm1hJulBO5SCTykElQr21CuIPpcJm9FTn0jzpc/QHGL/Bft82iBw/qeMRPh7oxdkwKxwM0JLhKx0dffqW9EWmkl/p11G6Xy1hHoIR1vKylenjoJiz1cMHH8OKOvr1Aocb7iAb6+fQ/nyqtGoIemASs0FLytpPh4YRjW+noOW5v/yMjGu1ezoOzQDlubfbE0E+CtsKn444wpw9ZmQkEJ/nj+Gjv6MMAKTTeWZgL8dfY0/GF68Ii0X9OmwhsXM/DtnfxhbfeZ4Al4Z+502FuIhrXdHj7MyMZ7125C0d4xIu2PRlihATFnObVhFbysLBnrm9QaHCkqxbHiMshaFGhUa9CoVqNZ0w47kRA2IiHGmZthuqMdVnt7YJmnq957JReVYs3hE0Pus4jPx89RkVjl7a73nOOychwrLkNmdR0a1Ro0qTWoU6lhbW4GG6EQNkJzeFlZYqW3O6J9PWFtbsbYTkFTC5YeSoFMrhhyv02BMS80IfbjcWL9SsY3dVZNPV69eA1ppZVGtWkh4GNLoC8+mDcTdiIhrT69shorE1IH/fa2NjfDsZgVmOPsQKurVrbhjfTriMsvQpuR6uASD1d8tCAMwXY2tLoHyjYsO5SC2/WNg+qzKTGmhWamoz1Ob1oFiUBAKq9WtuG1ixn4Iff+kNoXC/j4c9hUvDYzhFZ3u74REQePol6lNqpNBwsRTm9azTjRf/dqFj7IyDZaWKjsmhzIKPCtHR1YFHcUmTV1Q2p/tDNmhcbVUoybO9bDlvJgnCmrwrojJyFvHz6T8SRbG6TELIebpYRUnt/YjAVxyahpUw2oHReJGBc2R8HbSkoqL5W3YlVCKnIbmoatz+OE5khcuxQLXJ1I5XUqNab8cAgPlG3Ddq/RxpgUGhGfjxs7YjDBxppUvjszB6+cv8p4jf84K6zwcsMyTzd4WlnCwUIEG6E5qpVtqGlTIa+hGcdl5UguKkWjWkO7frxIiPg1S2gPYXGLHHP2HelXcDykEpyPXQMPKVnwLlZUY83h42hmWBeyFQkR5eOB5Z5uCLCxgoOFCI5iCzSo1KhpU6FU3oqTpRU4UihDSQvzfOXjhbPxu2mTSWXZtQ2Ys/8IVNqRsQb+2hmTQpMUvQxRPh6kst+du4J/37hNOzfU3hb/iZiDcBfHAbf/VU4e3r58g/FtvGdlBLZN8CWV3W9qwfwDSXoFx9tKivOxUXC1JK8X7csrxLaUM7TzHSxEeC98BnZNDhxwn0+VVuDVCxm4WVtPq/v9tGDsXhhGKksskCEm6eSA2zcleFga9fYv3YlHyRMT/fEnyhzjuzv5eP1iBu3cH1cswmeR4XCnvN37Y5qDHf4wPRi1bSqa/p9QUIJJtuMQ1GdOMl4kRIy/F+Lvl9CMA2IBHxnb1tH6cOh+MTYfO02793NTgnAuNgpTHWyN6rOPtRTPTpkAD6kEycVl6PsmvfKgBr7jpAi2G99bNmG8NYqa5cgZg4aBMed79s7cGaTjK1U1ePLEeVKZq6UY2Y+tx44gvyHd67PIcHyyeC6tfGNyGg7dLyaVeVtJcWnLWjiJLUjlyg4tfnfuMrSdnb1lSUWl2JicRmv3iyXz8Hlk+JD6vHNSADK3r4OAS340dqScxaXKalLZ+/PI3+VYYUypZ/8zdRL+d9Gc3mO1Vgffbw6gslXZWzZeJETm9nXwlNLXbHLqGnG2vApZNfW4WVuP4hY5gu3GY6q9LaY62GKllxscKQ89QDzk0YdPgPpFH4lehjUUNTGjuhZz9yeRhAQA1vl54uDqSCQXldHUIg6Ag1GR2ODvTbt3VWsbjsvKkVVTj6zaeuTUNcDHWooQO6LPEe7OmGxLNzHL5Ar4fRNH6oebpQRlz2wlnffi6XR8ln2Xdr0pM2aERizgo+TprSQz6ocZ2XiNopZd3rIWsxnWP169cA3/vH7L4D2szc3wzbIFiPHzotXpE5zEtUsRTXHZuVhRjflxSbQ2Zjs74EpVDa38Zz0CszevEC+kpfdrCXxtZgg+mDeTVn6pshrhB8j9+GhBGMlroqZNBc//7oNaqzN4D1NizMxpYgN8sL2PuiVvb0fMkVPQ6B7+2G/OCsXjE/1J1+U1NmPxwaNILJT1ew+1ToeD+cW419iMSA9XCPm83roAG2uEOtjiwL0i0jVx+UWY6mCLgD6WPA+pBEs9XXG2vIpkFatQKEFl36oIxAb4kMqaNe3YlnIG7127Sfp8+kivrEZCQQkWujuTXiruUgnUOh1JLbteU4fnQ4JgziM+m0QgQG5DE+7UD5+5+9fOmJnTLKW4tnx35z7pDWwnEuKNWaGkcx4o2xC297DRq+Bx+UWY9lMCzRq2xscDP0dF0s5fe/gEjsvKSWVznB1wYPVi2hynL/tWRWBLINkSV9mqxLSfEpBQUGJUn2/XNyJs72FUtZItfm+FTYWN0Lz3uEmtwU93C0jnLPXQ7zZkinBhxuxvZGos93IjHScVyUjH74bPgIWAvL1o67Ezg17k1Lf+ssHfm1FwVsSn0gRnpqM9DkZFgs+lv9uC7WywzpesBpbKWzF3/5FBeybL29uxI5VswhYL+DTjSVJRKenYkP+bKcKFUAgw/CimRLCdDUntkLe340wZeb/IM8ETSMefZd8d8p6SHsHpa2gACMHZuzKCdj6T4IS7OOLsptU0wcmpa8S6Iyd75xIyuQLhB44Mee/OmbIqfJWTRyp7clIA6fikrILkqmNvISKZ0E0dLsABeKa9gZNqHcqqIS/gMS1cfpRpeNI/UIpb5Ji7ny44Wyf46hUcqkDrE5zjsnKsO3ISt+sbEb4/iXHOMxh2Z+aQjoV8Hs04kkVZBGWywJkqxK/A+YV7McJQ/cvKKQ8X1fmxQaXW61YyGHrUpoEKzqrEVKSUlJHKwl0ccWbjapo39nFZOWbsSaS1PRTuN7WggeJISh1JqAJK/Y5NGUJoBmBhGc1Qf1DqA0ZdW7lIWcQbDgwJzg8rFpLK1FodViUcx7FisuDMc3VEUvQymuPnQCxkxnLlQS3p2JEirBWtY1lotNoxJzTUt6SjmPxAMK2FDAc9gkOddzwW5E8THABYnXgciQUyUtksJ3vsWxUBEX9kVWrqd0B9sVQoyJ9hbAkNlwtwTFs/03WRlxQ7KcfU+pGkVN6K8ANHaLsgHwvyxx4GVS0m6STN5cbVUgwrPbsshwuqRwKVDkq9iT9CJAj1TDgy+8t/LdQoyWZf6luTWh9iPx4jSYVCiXkHkmiCs22CLw4ymKM3Jqfh527BkckVWBiXjOoR3s8Sak92+KTej/odVisHtifIFOBC1QYIBCYtONS1EgeKOkatD7E3zkN4MFQolJh/IJkmOBv9vfHRgjDa+ZuS0/BZ9l0sijv6SEJChVJeHNRtDtRF15EW4l8TXJiLALUKMDMDBKa50FlLEQrqpJbqvj/BxnpY5wyWZgI8NyWIZoEqV7Ri3oEkmqXuD9ODEb9mCa2dF0+n04Rsgo01ng4OpG3ZHgpiAZ/k1gPQv6OxLTQ8DsAXABoNIBIBffylTAXqDz7TyZ50nFVTj3LKxPb3lN2Kg8VFIkbm9hh8HhmO3Cc2YrG7C6m+QqHEgjj6iBPj58UoOH0Jd3FE1o71+GrJfGRuXzeooIZMvDKdHD9NJlcgp47sStTfuo0pw4VSScziBHxAqwNEFiY3q6tQKJHf2Nx77CS2wCyK4FDd298Nn4EwyjnG4im1xNWt0fAfZ9VbxhTQr1zRyqiqxfh54b9L5+tt/41Zob1OoQE21ri6NZpxS4MxzHVxxNtzppHKPr2ZSzoOd3Ek+aPlNjTRfNZMGS46OwFVG9DFAbgcoAvEiGNiHJdVkI7XU9z3P7mZS4sMc2B1JCzNBqf2+I+zwqUta2lblPVFculR1foKjkyuwHtXb+q9B3VTmKulGJe2rCUJqTFYmgmwfxXZglfbpsIn2WShoW59OF5Cdv0xdQjrWWcn0NZK/OeAUNdMzDBA/WF3TQ6EtI+zamtHB/6RkU06x0MqwfVt6zDFzjhr2vYJfri6NRrOErLeH5dfhD+nX9d7XV+rmkyuwKK4owYD9L137Sa+pPiJOUsscHVrNC0OQX9MsRuP69vW0RZO3792k7RXRmpmhl2Tyb5oVH85U4e8n6ZDSwgMhwPw+UBnF9BpGgufhc1yPDkpoHd9o2eif7rsYSDAK1U1WOLhQtqPbysS4rkpQeBzOTjbjwOnnUiIvasi8MasUJohIaGgBJsYtihTkbd3IL6gBKdkFbgzgJBMR4vL4GllSTKTi/h8xPh5YaqDLU7KKqDqZ4PYO3OnY9+qxbQFyitVNXjm1EVS2bvhM7DIzbn3uLhFjt+evdJvP00J5p2bFuJugwAHaFMCJhKqh7ryrtbq4PftAZKHgIDLRf6TsYwhapvUGqRXVuN8xQNcqHiAe43NmO3sgPmuTpjv4oR5rswRa9JKK7Hk0DFa+VOTA7HEwxX/vJ6NGzWGJ9LhLo54ISQIp8uq8M3te7T6uNWR2BRA370JABe6+3uhohpXqmoQNH4c5rs6Yr6rE8JdHDGuz/ykB5lcAd+vD5AWfj2kEsieJm933p5yBnvzCg323dTQv91ZJOo2QXcBajXA5RFzHl0n0K4Gbd/uKCFv5yYE9jGnniuvwqKDR0nnmPN4uLJ1LW2BbzDE5Rdh81F61Jj/i5iLl0InAgDaOrQI+v6g3vWXybY2uLRlbe/86pObufjNmUu08z5dHI4XQoKG3OdbdQ2YsSeRtup/IXYN6cWQ29CESd//POT7jTb0b6RRqYCOdgAcYn5jZkaobubmgFgK8EanafrtyzdIxwvdnPE1xUKl0ekwfU8ivhtihP+Xz15mFJivl87vFRiAiP3cV+WhMt3RjmSQeCl0IqNV7cXT6XiWok4Zyze37yHkx3iawHy3fCFtJP3rpcwh3Wu0YjhGAIdDeAswlXN53UI1ushtaMJkOxvSQuNUB1u0tLfjah/P3i6gN1NAgI21Uabcr3LyEJV4gjRf6uHHFYvwBGVTV3GLHC+fvYx2HbO/V3GzAlsn+JKi+k91sIWPtZQWu+BGTT2+zMmDlZkZphkR+yyttBIbktNoG9AAYrH1TxRTeVx+Ed65mjXg9k0Jw9FoelU0PSjkwCN0dhwuRHw+Lm1ZQ1O//nX9Fv504RrjNQE21ljp5YYlHq6MYWnzG1uQVCRDakk5Y1hafbGRS+WtWBCX1K9rjL6wtOcrHmBN4gnGbdm2IiGWebpijY8nLSxtrUqNkhY5TpVW4mhRKQqbmbdI/2tBGF6h5OzJrm1A6E/xBvtryhgWGgsxYUXTh1JBzHFGIU5iC9x6fAMtMn5KSRlik0+jtWP4khj5WktxauMq2mhV3CLH/APJA95Api8AemGzHCviU/Q++INBIhAgce1SRHqQPRgeKNsw7aeEMR0A3bB6xhcYnruojUsT8WuitaMD58qrsDHAhxRqyW+cFR6f6I+aNtWQc7GI+Hz8dfZU7FkZQTPn3qprwKK4o0Y9fIr2DsTdK8IST1eSl7GN0BxPBweCy+Egs6aONh8xlp2TAnA4eiltfapZ044V8Sm439QypPZHO8wjTc+En8cjlHsmrxqNmvBXG+X4WEtxbN1ymoMiAFyvrsPrFzMY5yaGsBDwERvgg/fCZzCGYEoqKsXWY6cHnYNTLOBj36rFtOicABFR8830DBy8XzyopE4fzJvJOBe619iMlQmpw7oNfLRCFhoeDzATEn5oHR2ATktYzro6AU4fQ5uJCEwPUjMzxK9ZQlNFemhSa5BaUo7EQpnB9IHTHOyw2scdyz3dGNsBiMRLbw2T1em98Bm0WG19SSkpw9GiMtysrTeYPjDGzwvLvdz0pg88VVqBDUlpw5qzZzRDCA2HQ4wsZubE1meNhvAEEEsAbQfxJxKb1EInEzsnBeD98BmM8ZiHyo2aerx89jLNX2yozHVxxKeL5xrt6jMQHijb8Gb69SGb3k0NDv7zfReE5oTLjEbz0IxsISZMy22tgLmQUNlaTX9oFgv4eH1WKP4wLZg01xksla1KvHHxOn68O7RUhP3x+ER/vB8+k+bvNhhUWi12Z+YMSypCU4SDrw50QaMB2jUPzcdCIbGYqVQSI4+o+4dQjR2LiZW5GaJ9PbHez4uWAKo/6lVqHCmUIaFARgvFNNKs9HLHen8vrPXxwHgjgl2otTqcLK1AQkEJDhfK0MKQWY2FgIOP/9uFvtYWM3NCaHo9AgBIpITrzBjVaSUCAdb6emCGoz3cLMVwlojhKZXAUWyBUnkrSuUKVCiUKJErcLasymjDwUgR6eGChW7O8LayhItEDA+pJTykElQr2yCTt6KqVYlyhRLXq2txuFA2aMPEWINsCODzCbVMoyEm+wDhbyaRdo867JfKwvLQJMbhEpayjvaHAgMA3O7FzS7T2CLAwjJUHgqNSASgC6Dmtedxic1pnaPPXYaFZSTojnsmJFQzlQo0n38ef9S6yrCwjARcCMyIyb9KxRyelssFOtm5DAtLD1yIRICmndnNn8MhhMbEYz2zsBgDF9oOQKMnpGiPsyYrNCwsvXCJeYweeDzC72wU7plhYRkpuAYFgssjAgiysLD0YjjZJo8HDHFvBguLqaFfaLjcbiMAazljYemLYaEBTCZYIAvLcGFAaHjdETZZIwALS1/0Cw2Px6pmLCwMGFbPWCMACwsNZqHhcLotZ+x8hoWFCrPQsJ4ALCx6YRYabrcnAKuesbDQ0DPScNntACwsetAjNHxWNWNh0YMe9YzLGgFYWPRAF5peIwCrnrGwMEFPCcDjA52d2LN8AbZN8MXKhFSkGsje6ym1RNFTm3GztgHT9yTQ6rkcDrYG+mLX5ABMtLWBBZ+PkhY54gtK8Fn2XdS20bcm7FkZgW0TfBH58zHGcEhfL52PXZMDwdn9ld5+HVi9GLEBPvhHRjZev5jBeM5TkwNJyZE6u7pQrVQhpaQMb13KRLWe4OTW5mZ4bkoQYgN84GMthVqnQ0FTC37MvY8f7t4nJXYFiKwBBbs244/nr+KjzBxae6u93ZG8bjmiEo/jaLHhOGn62qp4dhtEfD4Cv41DHTXOA4DCXZtR0arEwrjk3rI9KyMQ7esJyX++7S2rfn4HHCz0Jyl+Pi0dX9y6q/f6vnA5HJQ/sw3OEgssj0/BCUqGbQAItLFG3s5NBj/zhO8O4l53SvuKZ7chu7YBqxOPAwBenjoJ/140R++zAgBPTPTHd8sXYs3hE0guKu3tO1MyX2WHVu/n6YFBaLiE5aybF0MmGhSaF0KCwOUwRUgncrLErV6MJR6uuFRZjS9u3UVbhxaTbW3w2swQPDclCOuTTukN1fp5ZDiCfzxEewj7w0LAx2pvIsDfpgBvvULTw5vp11HcIgePw0GAjTV+EzoJyz3dEPJTPBooD+BkWxsciV4GN0sxkovKkFBQAiGfhwWuTvhiyTy8EDIRy+JT9ArcSGIjNMfHi2ZjR8rZQbfx1InzEHanV3ksyA9RPh54PPUc2rrDEWf1kxu0L/NcHHsjfsYG+DAKTWWrEhv7JPD9cP5McDkc/PH8NdI5+jhwrwi7F87GlkAfvUKzOdAXjWoNLcO3RqfDE8fPkco6BqBh0YWGS3afWeHlBi8rS8Zo8UI+D09Ssnr15acVizDf1QmxR9NwML+YVPeXy0S0/uToZZjyYzzKFeSkRrquLnhaWeLNWaFGBwyP8vaAWMDHpcpqzHVxxAxHO1yvrtN7/klZBTJrHtafkFUgffMa/H7aZLzZJ4X5OKE5jsUsR2cXEPJjPHIp2Ze3T/DD9ysWIjVmBabtSUDnI968p9JqiT7cuT/ogIV9R7owJ3sAQFKRDM2DiLi5OdAH2s5OZNXWY52fF55Lu0jL9qZo78Ch+w+fjddmhoDP5ZDKDFHTpkJaaSVi/LzwfFo6Lc2IrUiIxe7O+Pr2PVqdtrMLB+4VGf25yHMaDrp9zog3u0anQ5Nag+enMCc/3RLoC2uhOaOKtc7PE6u83fHn9Os0gQGAomY5oo+chIWAjw/nz6TVq7U6fHQ9B3+aEYIJDGkwDBEb4IPWjg48l5bee2wMlyqrUdumwjwXctayv4RNhYtEjI3Jp2gCAwB78grw/rWbEPC4ejMQjCRny6twqbIan0eGD0sc6qHA43Cw3t8b58of4L8592BtboalHq4jcq+9eQUYJzTHMk96+xv8vcHncoc1AzVZaLhkI4C2swvf3snHrsmBjD/CiyETcbSolDEx0c6JAVC0d+DT7Lt6b36vsRlHCksR4+cFK4Y0D+9czUJFayu+WDKPMUUOE5ZmAqzwcsOx4jLcqW/ErboGbArwHvD1PWh0OvC4D6/ic7nYEeSHM2VVBketv1zKxKTvf8ZJBlVkpOnqAp49dbF3hP4liXB3gZ1IiPiCEiQWyqDt7ERsoHEvr4GSWCBDW4cWmwPpc5TNgT4olbcOa7YGutB0dZHMzZ/fugtrczNsprytw5zsMc3BVq9QhNrbIrOmDqp+UnOcr6iCOY+HgHH00USl1eKFtHTMd3XCTgNqYF+ifT0h5PMQf78EAHDofgncLCWY7ewwoOsBwNtKCldLCXLqGnrL3C0lGC8S4mLlgwG3Q8VCwIetSEj7k+rJCzMYchuasDuTGKEDjRyhh5PNgT7o7OrC4UIZGlRqnK94gLU+niMyArZ2dCCpqBRrfT0g6pPu0klsgXkujtiXV0iN5tcL9bcYSP/IQsOwqFnSokBqSTleCp1EKn8xdCLuN7UgrZT5jWpvIUI9gxWHSoNK030+c4T7E7IKxOUX4V8Lwmj5MZmIDfCBSqvtjdbfoxsbUtFEAh4kAgGszM0wx9kBB6Mi0a7T4f9u5vb5PMS9B/KZ9PG3OdNR98JjtL+9KyMG3SYTf7+ShcpWJb40YoQeTgRcLtb5euJSZU2vQST+fkmvFjAS7M0rgEQgwGpv996yTQHe4HI42JtXwHiNWMCn/RZPTQ7s915kQwCfy5i06dPsXKTErMAsJ3tce1ALO5EQG/298eqFa3oluLZNRcszyUTPObVt+h/G3569gns7N2H3wtl4LFW/ZWic0BxLPV1xrLisNwL+vcZm3G1owsYAb/zu3BXGyfmF2DWk44KmFqw5fAJ3+8xbesy444UDT19B5aucPPzMMMGd5WiPd8NnDLpdKj0jdOr6Fdg5KQDfPuKkTMs8XTFOaI74goefNaGgBJ8snovYAB8kFsiG/Z4nZBVoUKmxOdCn9zveHOiLW3UNjPNPgJg3Rx0+TirrMW0bgiw0XGafs+Ml5ShqluPFkIm49qAWTwdPgLazC9/n6k9UdLO2HovcnWEh4BtMDLTQzQkanQ75Tfo7W61sw+sXM/BZZDi+z9X/AMT4eUHA5eKErIKUCi+lpByvTA/GPBdHnK+gq1dPnbyA/MZmvDErFMs8XbE+6RQtSW2ZvBVNag3muTrqvX9/FDS1IK2UbtUSGkoGPEiOy8pxML8Y/5w/C0ndaxOPip65y5myqt7fQaPTIaO6DlHeHv0+E4Oho7MTB+8XY+fEAFiaCWAjNEeYk73eFPcAYaFl+j3646F6xuMB4DDu1uwCMbfZFOANR7EFnpsyAXvzCgwm/vkuNx8SgQAvhUzUe07Q+HGI8vFAQkFJv0mEvszJw9UHtfgich7M9eidsQHeAIj1naaXnuj9e2V6MFGvZyJ6q7YB6ZXVeD7tItRaHaPhoaOzE3vyChDh7oKpDIlce3hzVigyt8dgyQhZiozht2cvg8/l4uOFsx/ZPYV8Htb6eAIAch7fQPodwpzsu9fQ3A03Mkj25hVCyOch2tcTmwN90QVg/73hs5r18HCk4XEJ6dCzHeDbO/l4Z+50/BwVCTdLCT4zYBUDCIvGseIy/H3udMjkCprZ2ddaioQ1S9DWocWrFwwvPgLEav2zpy7gxvYYuEsltHo7kRAR7i5ILSnHP6/fotX/76I52ODvjd+cvgSdnvWTUnkr3rmahQ/mzcSzU4J6V757+NuVLKz388ahqCVYmZBKG8o3+Hvj7TnTkNfYjDO/gsROD5RteCM9A58uDodGp0OFgUXC4WKllzsszQT44Fo2TlLmu+Y8LpLXLUdsgA/jMsRQuVxZDZlcgc2BPnAWi3G+vAoViuH/zH2Ehm8w0HmTWoP994rw5KQApFdW41Yfy5I+tqecwcGoSMStjsRvQqtxpqwKbVotptjZIMbPC01qDVYnHqctbOojp64R/8660zty9GWDvzd4HA4+v3UX58qraPU/5N7H7oVhWOTubHBI3p2Zgx1BfvjHvJk4UigjmdMbVGqsTEjFkehluPXYBhwulOFmbT3MeTzMd3VChLszchuasDw+Ra9gPmq+uJWHxyf6Y6aj/SO5X2yADzo6O7H7Rg7NmwIgVP0ewVK0dwzrvbsA7MsrxKszQ8DjcPD0yQsGz+dzOdhM0T46dJ2ILygxeN1D9YzL63c7wKfZhDWpv1Gmh2ZNO1bEp2JHylloOzvxQkgQ3gqbimC78fgw4xam/BiPy1U1A2qrh7cvZ6JUThey2EAfNKjUNFeJHvbfK4Suq4tmOqfS0dmJF9LSYWVuhv9EzKHV36prwNSf4vH3KzcQaGONN8NC8VLoRFgI+HjxdDpm7ElEVeuvJzcpMUJfhPYRbCgUd5LgR3oAAAB7SURBVKteqSXljAIDEAvAfVW44WZvXiF4HA40Ol2/XgXmPB72r1pM+vthxaJ+7/EwfaDUipxnk4WFhRFipOnxBGD30LCw9AshNGwgDRaWAdMtNGziJhaWgfJwpGFVMxaWAdE9p+GzIWhZWAYIF1wusY9Gy8YEYGEZCP8PXW4b61dNPAUAAAAASUVORK5CYII=;" parent="1" vertex="1">
          <mxGeometry x="252.73499999999999" y="424.88" width="84.54" height="40" as="geometry" />
        </mxCell>
        <mxCell id="ebhqw7w70b1g1X7fbuDB-11" value="" style="shape=image;verticalLabelPosition=bottom;labelBackgroundColor=default;verticalAlign=top;aspect=fixed;imageAspect=0;image=data:image/png,iVBORw0KGgoAAAANSUhEUgAAAIwAAAAxCAYAAAAIlEGVAAAABHNCSVQICAgIfAhkiAAAABl0RVh0U29mdHdhcmUAZ25vbWUtc2NyZWVuc2hvdO8Dvz4AAAAudEVYdENyZWF0aW9uIFRpbWUAVGh1IDAzIE9jdCAyMDI0IDA0OjAyOjQ5IEFNIENFU1QPL8iKAAAdW0lEQVR4nO18eVhUR9b3797b3SwN2ICiuIFGAzJIFARl3MeF6Bj0c4k+rhkhJt8MbmjyqIkGt7yvT9T4RRO3uBNFjaiMxC0RzWRRMZpo3EWCIrRszdrbXc73B96abmhMnGQi77ye56mHS9WpqlOnTp0651RVc0REeAbP4BeCpsGS30qOOO63aecZNApwKTA1NTVQFOU36YDneej1+t+krWfw9IFTFMVJlUiShGmDhqL5T0aIHECKAu5f0BLEcfAAUNa2BdZ+cRQCzz/TNv8BUE/DEBF8zHb0hwdsCgGkAOBqJ/vRNsXzPCS5VgPxHAcBgAwCx3GPUAgKcTAIArIsEogIUBRAEFg/dTUYx3ENCuaT4D4puNKkPM8DAGRZBgAIDnQ/KT1EBEczUW3796K1IToAZ7rV+jzPP5a39QSG4ziQRkANFBRaagCegzs4yJIMXuAhCzxsNhuaefmAAFhFG0yyCB9eA5IVcCBwGgEVkohgrQc4rbdLAp6Ecb+Gyb+mbaGOgKu4T0LPbyncv5RWIqrX58/R0dBY64JLDUOiiDJJROUrw/GnoUOglwkF9/PR7rn2KLdZcfjQIYgHPoe/2Y7SF3ui7cg/I7L9c7jx41W0atECnt5eOHrhPIyHT8FeUlQr2Q4E2Gw2zJw5E7IsQxAE2Gw2hIWF4Y033qhHYF1cq9WK8PBwzJ07t8HBS5KEKVOmoKKiArt374aPj49LPJvNhlmzZsFut0MQBCiKguLiYhQUFECv1yM8PBzdu3fHyJEjodfrQUSw2+2YOXMmRFGEVquFKIpo2bIlFi9e7JLJq1atwvXr16HRaFBVVYWFCxciNDSUTYrJZMLEiRPRtGlTbN26tUEN8fDhQyxYsIBpAFmWYTQa8fDhQxgMBkRERKBnz54YMWKES4349ttvw2g0QqvVQpZlVFZWorCwEBaLBd7e3ggLC0N0dDSGDh2KgICABnkLRVHIMdlsNpoW3Yu2zV1AhzIz6VZODpmqqujy9Wt031hIFdVVdCDzCH30t9m0fugYOpyRQbfu3KH8wkK6V1BAuffvU2VNNX3x1T/o7GfHafqwEWS320mRZNaHLMv07rvvEgACQBzHUUZGBtWlRcVduHAhw3Vzc6Njx465xJUkiRRFofPnzzP8o0ePOpXVbXvz5s0MFwCNHz+eZs+eTQMGDGB5oaGhdObMGdbO9u3bieM4Vn7gwAGXbSuKQgcPHmR48+bNo4qKClIUhURRJEVR6NChQ6z8ypUrTnXrzsuyZcsYrqenJ02dOpWmT59OPXv2ZPndunVz2c7OnTudxhkfH0+zZ8+mpKQk6tu3L8tv1aoVvfvuuy5pUBSF6gmM3W6nv0b3pnX9htGHH35Ib775Ji1fupT+3/tr6NXERPruwgVav3ET/dfgEbS+QzStfGM+ncw6RcNfeol2bN9BmzZuoi9OnKSME8dp5xtv0/SYPrUC44KAZs2akUajoWHDhrkkzpH5Ku7UqVMbZKo6CW+88QYJgkCCIFBCQkKDAqOmyMhI0mg0FBUV5ZR/7tw5at26NQGgJk2a0M2bN1lZcnIyaTQa8vT0pOzs7Hp9qPQVFhaSu7s7DRkyxKVAjRs3jjQaDfE8TykpKU7jcJVUPgwfPtwpPzMzk5o0aUIAKCgoiIqKiurxadiwYaTRaCggIKBeu3fv3qWxY8c6CVRNTU09PtfToUQEDQDvm3mw1NSgW3Q0cvPy0LJ1K3h6esJqtyPA3w9eN3Lh/9AE64NCVNTU4Nr16/Dz94MoibDZbbDKEjSFxfCqqVIbduqnoqICsiyz9Dg3vqqqCoqiQJZlaDQaKIpSz4ADavfhqqoqpKWlMfyMjAyUlJQ0uCfb7XaIoghZlmG322Gz2SBJEiRJQnR0NGbMmAGe51FRUYFNmzapWhljx44FAJjNZpZfl48AsGPHDlitViQmJjKaVBsjLy8PGRkZLG/v3r0QRbHBbamiogKSJEGWZdhsNsiyDEmSoCgKhgwZgsmTJ0MQBOTl5WH37t0A/mnMqn3LsgxRFJ3aIiIEBwdjz549mD59OgAgIyMDc+bMeeTIOBjtqvWsJo7jAI0AiukMGUCf3r0xf/58REZGonv37qgsL4fBzw9u4SEoaRcIbZuWkMwWrF+/Hq1btcILEREIDg6Gj7sHAntEodLLmzGwbj/qt/LIda+L4yrJssyMN8d8Sar1xtLT03H//n3wPA+tVovi4mIcOnTICafeeB0mmOd5CILA7IR+/fpBEATwPI9r166xOlFRUYiOjgbHcThy5AhMJpPTGDiOgyRJ2Lx5M1q2bIkhQ4aA4zjwPM8madu2bTCbzXBzcwMAXL9+HVlZWWycj6OViBitqiAMGjSI2UZXr15lY1LrOi40juPYuFTBUhQFK1euRFRUFARBwIYNG3Dq1CnnPl2tUt+AAPBhHdHE3x8Xv7+EopJiFBQWIComBmXl5ai0mCF1bAtd60AY2rWF1W5DYOtWqLFY4ObpiQdGI3Jzc6Ft2xKyr7dLbaASrU7S40Cr1TLcuhPsSDcAbNy4ETzPY+XKlfD09ATHcWy1NbRyXYGq8URRdBImoNao5jgOY8aMARGhsLAQmZmZAOCkLbOyspCTk4NXXnkFbm5uLF819Hfs2AGDwYCUlBRmzO7atctpnL8EVIGw2+0s70k9S57noSgKNBoN5syZwxZmamqqM56ryk0CmuHB1jSIZSZkHT2Ow3v34/zZczh+6DDyc3Jw9euzsO3NBJ0+h+qvskEV1Tiy/wDOffstPt29G58fysCD+/fx9bLVaFZueWxsAKidAKvV2mCqrq52Wi11QZ2I8+fP4+zZs4iNjcWMGTPQpUsXAMDXX3+Ny5cvN1jfURg1mlrHUaPRgOd5pKamMi04cOBAp3qjR4+Gr68vOI7Dnj17GOPV9jZv3gyO4zBlyhTWvrpFHDt2DHl5eRg6dCiSk5PRvn17AMBnn32GgoKCeltBXVodBUJdUKmpqWziBw0a5JLnjwN1ngYPHgx/f38AwJkzZ2C1WhmOy6MBzw7B8NN6QPNRGpoKAqyyDJNAMMgc/DUCJFGCzl0PuOvh8eUl8N9eQaAso5QndOQEeIIDcRwUqw33BsU0uFpU5p08efJnjw/UiXzcWenHH38MAEhISAARYdSoUThz5gxEUcTu3bsRERHhMkahtinLMkwmE3Q6HYxGIzZv3oz169cDAAYOHIjExMRaG0+jARGhVatWGDx4MPbt24czZ87gzp076NChAwAgPz8fhw8fxuDBg9GhQwfWrzrRGzduBABMmjQJgiBg+PDhWLlyJUwmE9LT05GUlARFUeotNpVWURRRVVVrH96/fx8ffPABDh06BACYOHEiRowYASJ6Iq2qgsFgQGhoKL7++msUFxcjPz+fjculwLTrEoFs+2aE8d6w2K1w4zi0sRLMVguqrFYIAOyP9k/VmNK66dBC5wbodFAUGTqNFiZFgl/nTrWT4WLwKvM6dOjAjEhXYLfb8dFHH7GtoC7wPI+ioiLs27cPgYGBGDVqFDiOw7hx47B48WKUlZXhwIEDSElJgbu7e7366iTcunULbdu2ZTEfs9mM5s2bY9KkSVi4cCE8PT1ZHXUyx48fj3379sFsNmP//v2YP38+AGDPnj0QRRFJSUkMX9U+V69exYkTJ9ClSxemtaZOnYq1a9fCbrdjz549+Nvf/uZyslVteubMGbRs2ZL9b7Va0a5dOyQkJGDevHm/KljIcRyaNGnCvs1mMyurLzBE6NatGzI8NfiDDMgCDw9Rxn1I+Kl7CKI6v4DAJgaYa6pRWGhEE18D3PR6XCvIh+d31xCYXwJZ7w4ehBzZirH9+gJwvaeqeWFhYViyZMljB7Ft2zbU1NTUY4Q6EWlpaaiqqsLMmTPh5eUFURTh7++PkSNHYsuWLbh79y4yMzMxatQoJhCODAKAli1b4sMPP8T69euRmZkJjUaDgQMHYsWKFfUMT7X+oEGD8Pzzz+PWrVtIS0vDm2++CY7jsGnTJrRt25YJhLq4OI7Dtm3bwPM8XnvttdpjFklCSEgIBgwYgKNHj+LChQs4d+4cevToUS/qqn5HREQgJSUFS5YsQXZ2NgRBwLhx4zB//vx64/tX4OHDh+zbcaFAlmVySpJUGyyb+AqltelKnwZ3ow/adKaVSbNp9Yb19KC4mArLTWSsLKfb+ffJRkSl1VV0/sfLdHDXJ7QiKIL2B0VRelA3mt0vjkRRZG06pvLycvL19SUANHjwYLLZbA2mkpIS8vPzIwCUkJBAsizXtvuoLavVSuHh4QSA/P39qVWrVhQYGEitW7cmLy8vFhyMj48nWZZJcqDHZrNRREQEAaCIiAiSZZlMJhN16tSJxSQ2bdpUr0/H/+fNm8f6OHfuHH3zzTcEgBYvXkyyLJPdbmd1ioqKqEWLFozW1q1bM1rd3NxYn0lJSfX6LC8vZ3wYMmQIybJMubm5rD2dTkdHjhxxSassyxQXF0cAyNfXl8rLy+uVS5JEkiRRXl4eeXp6EsdxFBISQmazmeFo6toEqnTGjhuN88e/RlePJpB4AXpDE3h6eOLLEyeQlXUaoaGh4DhAr9fDarEgukcsFJsNMgA3jsddWw06j02sNfRcnE049qu6eA1BQ/u4JEkQBAGnTp3Cjz/+iLCwMPTo0QMWiwU8z4OIoNVqcfr0ady7dw+ff/45cnJy0L59e8iyzHBUta4oCsxmM7y9vZGamor+/fujqqoKs2fPxgsvvICoqChWz5GWsWPHYtWqVZAkCTt37kRVVRUEQcCECROYVlLrpaenw2g0IiYmBp07d0ZNTQ1rTxAEHDt2DCUlJUhPT8eSJUvg4+NTL+yg0irLMtq0aYMtW7YgPj4eoigiISEB3377Ldq2bcvquQJXh5HqcceWLVvYNjRw4EDodLp/4qpS5ZREkWw2G73Wsz/tD+pG6c0704rOf6Sde9Mo9+5dWrt2LS1YsIBeeukl2rx5M70xZw4dOPYZ7Xx1Bu3wakcZz/WgxPBoMplMJIli/fYlicrKysjX15c4jqO4uDiXOI64fn5+xHEcJSQkkCRJZLfbyW63kyRJNGLECAJAR44ccVl/xYoVbOUuX76cJEkiq9XK/oaHhxPHcRQeHk4Wi4XERzRv376daY6OHTtSUVERSZLEyh1T3759ieM4NqaXXnrJCVd8xNPo6GgCQD/88INLWpOSkhitqampJIoio9UVz2w2G0mSREuXLmX1/vjHP5LFYiG73e5Ea1xcHKOxpKSE8dBqtTJeXrp0ifHax8eHrl+/7kSfS7daeWRdx8+fg+8t5eAEAUJTP3BE0HvqIQgC+vXrh4kTJ8LDwwO9e/eBaLGinFOg1etxudqEQQtmw9vLC0oDXo1Op2MrS6fTucRRwc3NjeGq3pK6t+fl5eGzzz5DeHg4Bg0axOIg6gpUFAVjxoyBwWAAz/PYu3evUzsajYZ9a7Va5qLKsoyJEydixowZICLcvn0bCQkJAJxjJKqnN378eBARqqqqQER47bXX2EpWV/rFixeRnZ2NwYMH4w9/+AOL0iqKwr7Hjx8Pd3d38DyPnTt3Orn6jjzTarUAwAJ38+fPx5gxYwAA33zzDWbNmlXvqoJjHZUfPM+zEMIXX3yBkSNHoqysDESE1atXo2PHjs5R+AZX9iPJnDd+CqW0Dad9u1Jp165dlJebSxaLhaoqKumnu7lERGS1WGn79u2UefQozQvtRvPGTqhdVY+k1lW6ceMG27PDw8OpvLy8Ho66Oi5evEharZYdrpnNZrLb7WSxWGjKlCkEgKZNm8Y0j6v+YmNj2Qr86KOPWNsPHz6kVq1aEQBq3rw55efns77V1de/f39W99VXXyWTyVRPyxQWFlLTpk2J4zgKCwtjWkFty2Qy0eDBgwkALV261Ek7OCaLxULt2rVjmu3gwYOs7Pr164xnYWFhjGeqJikrK2O2HAB66623yGKxkCRJVFpaSs8//zyzdbZt20bHjx+nw4cP0+rVq5l9A4ACAwPpk08+ccnPBgVGFEWSRJEKCwspIaQLrR/0f2jDnk9o8fLl9P6a92n1urW0ct1a2rhpE320fj3ty/w77UyaS+PDulBxcXGDW5EkSWQ2myk2Npa8vb3J39+fvLy8aPr06Q3ixsTEkLe3N/n5+ZGXlxfNmTOHJEmi2bNnk16vJ19fX2revDkdPXrUaZDq38zMTAoICCCDwUC+vr7k4+NDqampJEkS9enTx6nt/v37k9lsdhLY/Px8Gjp0KOn1eifhrCvYCQkJBIDee+89J4EQRZHGjh1Lnp6eZDAYKDg4mL777junuiru1q1bydfXl/z8/KhJkybUrFkzOnXqFJWXl1OXLl2caB0/fjwbo9rO9evXqXfv3uTp6ckMb0mSaPTo0aTX68lgMDBHQBAE4nmeCUrXrl1p4cKFlJOT0+DWy0mS1GAkjIjAAbh46RL+K34M+rXtAC+DAUpFJQqqq2Bo1hTm+7VRSa1Gg69gwdJPdyM0JASEhsPbsiyjqKgIXl5eLE8URfj5+dXDVRQFpaWlTvETi8WCpk2bwmQysXMYURTB8zyLHzhCdXU1M5DVMxUA8Pb2RkFBgdN9maqqKjRv3tylEX737l3YbDY0bdoUzZo1q1deUFCAy5cvo0ePHjAYDE58VMeg3qnR6XTw9vau10ZlZSU7J1LPo9St0mQyObm4NTU1CAgIYNuUo9t/+/ZtyLKMFi1awGAwoLi4mPFQkiQUFRU5GcX+/v7w9/dnbdV151V4rMA4Vjx9+jTSJ72OAZIbSKuFpNQeeOk9PABJxgk94fUDuxDWqROURwP+TwFX0eHGCr+WVtWba6gNThTFn31PogrN999/j4//7yxEF1bBT+sGjuNQarPgXLA/Zm5ah5CQkF8cNGosk1CXjsfR5XjS21A5/RsXy5Pw7HG0/txh8OPgFwkM8EhoOA4lpaVYu2gx5IMn4M7xkEYMQvJ/L4OPt/d/nGZ5BvXhFwsM8E+hAcfh+PHjqKmpwciRIwGiZ8LyvwSeSGCAfxrC7I0R0bP3Rv+LoOGnsg2Aus+pt7d+7SHXM/ifBU8sMCr82u2n7h1eRyPt2dbWeOFfFphfCz8nFA3FAZ7B04V6p9W/ByiKgpMnT4LjONhsNlitVhQWFkKn0yE6OhpRUVEswPakrndjcdf/U+F3X8JqnOLGjRsYNmwY1qxZg5KSEgBATk4OJk+ejJiYGGRlZTlFZX8pPBOWfy9wdrv9d1UxqgYoLCxEcHAwli9f7vTstbS0FK+++iqOHDmCtLQ0jBw5st6zFBVcbVlXr15F+/bt4e7u7iQ8joLn+M647r0cRzrr5jv27+qtsrqNqn050ufYvyu61fLf8i32vwN+dw2jMqO6uhpA7XmI+jBLkiT4+/sjPT0dkZGRSExMRG5uLhMW1SBWkyv461//6nIrc6znWKZOUEOP1x29Qsf+HbVf3WcojvQ5lrmi21G41HafhpnwS+F3N3rViVcZoz7GUm/jS5IEjUaDJUuWYNiwYdi6dSuWLl0KIkJZWRnOnj2LiooK+Pn5oVevXvDy8gIRwWQyYfPmzbh48SLOnj0LvV6P0NBQGAwGSJKE7777Dnfv3oUgCIiMjGS34HNzc2G1WkFECAgIQNOmTaEoCm7cuAGO4+Dh4YGgoCDwPI/KykqcOnUKFosF/fr1Q2BgoNONuitXriAiIgJffvklJElCbGws9Ho9KisrkZWVhZqaGnTs2BFdu3ZlLw94nkd1dTWysrJQWVmJPn36oE2bNo3WFnvqbkjd1aReFlKF4cSJEwyvb9++2LhxI27fvo05c+agV69eKCkpAcdx+Pbbb9lN/QMHDmD37t24f/8+ACAlJQUvv/wybt++jcOHDyMqKoo90Prpp5/Qv39/xMXFwWKxMDq2bNmCvn374u7du+AeRbajoqKQkZGB7OxsREZGIi0tDRzH4ebNm+jTpw/i4uIwbdo0zJkzB/Hx8Th79izy8vLQs2dPHDhwAHfu3EF8fDyWLVsGoFaL/eMf/0B0dDQOHjyIS5cuoXv37li/fn3j1TTqNb3fK9lsNrLb7XTt2jUCQG+//TbZ7XZ2KUpNFouFOnbsSMHBwWS326mqqoo2bNjAyi9cuEAAaPv27SwvJSWFOI6r1+f+/fspOzub/d+pUyfq2bMn+3/mzJmk0Wjo1q1bLG/evHn0+uuvk91upzt37pCbmxslJyez8rlz5xIAysvLI5PJRJMnTyYA9P7775PZbKaDBw/SlStXaOrUqRQYGMjqnT59mnbu3El2u53y8/PJy8uLpk2bxsrfeecdAkA3b9504ldjSb+7W133BWPd98MqKIqCmpoaeHp6QpZl6HQ6/OUvf4Esy3jw4AEqKyvB8zzMZjOra7PZANQ+kHc0euPj4wEARqMRdrsd3t7eTkb09OnT8cEHH+D999/HmjVrUFlZiYyMDPao/9NPP4XNZoPRaMSMGTMA1GomnU6HH374AXFxcQgKCgLHcUhMTIQgCBg6dCiA2vs1hYWFWLduHSZPnozY2FjExsaCiHDkyBFUV1ejtLSUXQUtKiqCm5sbbt++jeDg4EanZZ5a4K4hUI3A/Px8GI1G/PnPf2aG4oYNG7Br1y4EBQXB09PT6WWgo12kfqteS3Z2Nt577z2YzWZ06NAB9+7dQ2hoKIBagW3Tpg3i4+PxySefYM2aNTh06BDat2+PkJAQALXuPsdxmDp1KrM9dDodVqxYgdatWwOovcDlSL9qiy1YsAA//PADkpOTsXLlSsydOxcJCQlwd3fHTz/9BJ7n8fLLLyMwMBCSJEGn0+Gdd95BUFAQG1djgqcmMI6usuNFaNVbWLt2LRRFwaRJkwDU2hQzZ87Ejh07MHr0aBQUFCA1NdXp5zMAZ7eU53mUlZVh2LBhiImJQVpaGry8vHDt2jXYbDan1ZucnIzDhw9j27Zt+Pvf/47ExERWFhAQAI7j8Nxzz6Fly5Yux1PXTVdtsbCwMJw7dw67d+/GmjVrkJycjHv37mHFihXseXBoaCgT4MYOT82t9vb2hkajgY+PD3ieh06nY7fXP/74Y6xbtw6TJk3C8OHDAQCnTp2CVqvFuHHjoNFoYDQaQUTw8vJymizHX1iwWCy4cuUKysvLMWHCBHYlVL2u6Hhu1aNHD8TGxmLRokWwWq2Ii4tjk/+nP/0JiqLgnXfecRqL1WplhrKHhwc0Gg08PDwYLQBw4cIFuLm5ITExkb2d+uqrrwAAL774IhRFYUawCupv1jRGeCpuNQCcOHECoigiIyOD/aZaTk4OTp48iUuXLiE5ORnLli1j28qAAQPw6aefYsyYMejUqROOHj0KQRDw4YcfIjo6Gu3bt2cPzQYMGAA/Pz+sWrUK3bp1Q7NmzZCcnIxbt27h+++/x4MHD5Cbm4v09HSMHDmS3RJMSkrChAkT8PLLL7PnGzzPo1evXkhOTsbq1auRl5eHF198EQ8fPkRxcTFWrlwJjuNw+fJliKKIr776Cr169YIoitDpdNi7dy9mzJiBRYsWwWg04sGDB0zwIiIi8NZbb2H58uUoKCjAkCFDUF5eDqPRiFWrVjndC24sICxcuDDl9+xQjVmcPn0avXv3Rps2bVBaWgqTyYTq6mrExMRg3bp1GDVqlFOQrWvXrnjuuefw4MEDWK1WLFq0CJGRkejUqRN69eoFrVaLkJAQtGjRAna7Ha+//joiIyOh0+kwYMAASJKEgoICDB06FLNnz4a7uzvi4+NhMBjYNta2bVsQEbMxHPsfOHAgevfujYcPHyI3NxfNmzfHrFmzEBgYCKPRiOLiYvTp0wc2mw1du3ZldYOCglBZWYkff/wRRqMRs2bNYtssEaFfv37o06cPTCYTcnNzYTAYMGPGjAa3vqcNnM1ma1xm+CNobKfV/65AWmMN0DUET+W0GgAzVuuCale4ClyprwxVPBUcBUvFcbRP1MtejtFlR2+qbh8NXQpzNLBVD02tL0kS67fub+Y6vuMG6r8VV19oqudQju02NuCsVmuj1DDPoHFC49H5z+B/BDwTmGfwRPD/AXZFDDvdzxu3AAAAAElFTkSuQmCC;" parent="1" vertex="1">
          <mxGeometry x="243.575" y="368.88" width="102.86" height="36" as="geometry" />
        </mxCell>
        <mxCell id="ebhqw7w70b1g1X7fbuDB-12" value="" style="shape=image;verticalLabelPosition=bottom;labelBackgroundColor=default;verticalAlign=top;aspect=fixed;imageAspect=0;image=data:image/png,iVBORw0KGgoAAAANSUhEUgAAAOoAAAAqCAYAAAC9fMf6AAAABHNCSVQICAgIfAhkiAAAABl0RVh0U29mdHdhcmUAZ25vbWUtc2NyZWVuc2hvdO8Dvz4AAAAudEVYdENyZWF0aW9uIFRpbWUAVGh1IDAzIE9jdCAyMDI0IDA0OjA3OjA1IEFNIENFU1R4U+z0AAAUa0lEQVR4nO2dfVRUZRrAf2joKMQ2rIs6rIQKgekiwsr6BZhsgcoCWQqCJQZosuluVrYimcePLbdFz6nUlrXAFpSPRFlBhdAT6IotKPERmnyGjhgWEMqnwt0/OPfKMDMwA7TZaX7ncI7e+9znPvfO+7zP+z7v884YCYIgYMCAgQeaYT+2AQYMGOgfg6MaMPATwOCoBgz8BDA4qgEDPwEeGmqFX331FQcPHuTYsWN8//33jB49GktLS5ydnQkMDMTZ2XlQ+lNSUjhy5Ajl5eVcv34dADs7O/z8/AgNDWX06NFD8RgGDDxQGA1V1retrY3t27cTGxvbp5yPjw979uxBJpPppb+kpITQ0FCuXbumVUYul7Njxw78/Pz00m3AwIPOkDhqbW0t/v7+VFRU6CT/+OOPk5qaqnP0O3fuHP7+/jrb4+/vz+7du3WWN2DgQWdI5qh//OMfdXZSgNLSUkJCQnSSraqqIiwsTC97EhMTiYmJ0esaAwYeZAbtqB9//DGff/653tfl5OSwbt26PmXq6+sJCgqiqalJb/2RkZF8++23el9nwMCDyKAd9aOPPhrwtSkpKWzevFnjue+++47ly5fz9ddfD1h/UlLSgK81YOBBYlCOWl1dTVlZ2aAMiI2NZeXKlXz33XfSsby8PBYvXkxJScmgdJ88eXJQ1/8ciI+PJyoqihs3bgxYR2VlJf/4xz/IzMwcQssM9GRQyzM1NTVDYkRWVhYODg5MnTqVhoaGQTWanpSXlw+Jnp6UlJTQ1NSEiYkJ06dP71e+qqqK2tpaZDIZTk5OQ27PYImPj6ewsJD58+ejUCgGpKO0tJRt27axcOFCnnrqqSG2UHeUSqXGEdjo0aN59NFHkcvlP4JVQ8OgHLVnFBwKvvzyyyHVN5C5bX+8/PLLlJaWYmRkRFFREebm5n3KBwcHU15ejrm5OcXFxUNuj4H7HDlyhF27dmk9b2Vlhbe3N+Hh4UPqtKWlpZw8eRIHBweefPLJIdPbk0E5qomJyVDZQWBgID4+PgwfPpx79+6RlJTE0aNHh0z/UNHY2AiAIAgkJCQQHh6uVTYnJ0eK6vX19f8X+37ODBvWPZObPn06Hh4e0nGlUsnly5cpKSlh3759xMXFERMTw6xZs4bkvqWlpezevZsVK1Y8mI5qY2MzaAOefvppIiMjGTdunMpxNzc3Xn31VSIiIsjOzh6Q7qlTpw7avt7U19cjk8no6OggPj6+T0c9cOAAAGZmZjQ1NdHU1ISZmdmQ22SgG7EkYMaMGbzyyitq52/cuMGqVasoKSkhKCiIM2fO8Oijj/6/zRwQg3LUSZMmYWNjM+C5YEBAAFFRUVrPW1tbc+jQIZYtW8Z//vMfvfUPde/W0dFBW1sbVlZWODo68u9//5vc3Fxmz56tJvv1119z+vRpnnjiCZqamrh48SINDQ0aHbWrq4vU1FQqKyuB7gorHx8fxowZoyJXUFBAa2src+bMAeDq1asUFhZSX1+Po6MjLi4uGBkZabW/oqKC48eP09nZCYC9vT391bsUFxdLSaIRI0awYMECvTvAlpYWEhMTpVGFra0tnp6ejBw5EoBbt25RVlaGmZkZ06ZN02rH7du3mT59utaRXH/PolAoSElJwdPTk6qqKrZu3ap1vf3cuXPSsuP48eNZsmQJra2tXL58GXt7e8zNzbl27RrXrl2T2v8333zD+fPnge7PcMqUKSo6r1+/TkpKCnfv3mXUqFF4e3tjZWVFbm4uY8aMwdbWVrvxwiBZu3atoFAo9P6bOHGiUF9fr9M9vvzyywHdIy0tbbCPp0Jtba2gUCgELy8v4dy5c4JCoRBeeukljbKbN28WFAqFkJ2dLQQFBQkKhUIoKChQk8vJyRFcXV3VbLezsxMKCwtVZL29vQWFQiFUVlYK69atU7vG3d1dUCqVaveoq6sTgoOD+3xX+fn5KtcolUohNDRUo+zevXtVZI8fPy4oFAohJCRE5XhXV5cQGxsrTJ06VU2Hq6ur0NDQIAiCINy8eVNqE83NzWr2t7a2CpMmTRJsbGyEjo4Oje9bEATh3XffFRQKhRAREaFVRhAE4dixY5IdN27cUDl35coVwcvLS83eefPmCWFhYYJCoRByc3MFQRCEd955R+v7fO655ySdLS0twp///GfB0tJSzQfefPNNQaFQCJGRkX3aPOh11IEOf93d3XWe0D/++ONMnjxZ73v02UMNAHF++sgjjzB37lwmTZpEWloaDQ0NKnKtra0kJSVhZ2eHm5ubFEXF60X++9//EhAQgFKpZP/+/VRXV6NUKjl69CjGxsasWbOGu3fvSvK/+tWvAHj++edJT0/nL3/5C8nJyURFRWFra0tZWZlaMuX69et4eXmRmZnJ+vXrSUpKIjk5mfj4eGbOnKnxOVtbW/Hz8+PEiROEh4fzxRdfoFQquXjxIq6uruzcuZOioqJ+39cHH3xAREQEDz/8MMeOHUOpVHL9+nWioqKoqKggIiICgLFjx+Lm5kZ7ezspKSlqejIyMmhra8PHxwdjY2Ot9xN0rIZdtGiRFM0vXLggHb958yZ+fn4UFRWxevVqaT774osvUllZSXp6OoA00vH39yc5OVkq3HnyySdJTk4mOTmZTZs2SXpDQkJISkrC3d2drVu3kpSUxLZt2xg9ejT//Oc/gfufrTYGvXum9/BMV3rPSfvDxsZGrzJF6P/h9UUcuj3yyCNAdwJsx44dxMfH89JLL0lyCQkJNDc3s3r1agDJUXs79JtvvgnArl278PHxkY67uLjw2muvsWnTJi5cuICrqyuA1LiqqqpITExk7ty5AMyZM4cpU6awaNEilYYH3Vnqmzdv8sILL/D666+rnHNycsLZ2ZmWlhaV4x9++CFKpRIvLy+VgpRx48bx7rvvMmPGDBISEnBwcND6rhobG9m9ezfGxsYcPHiQxx57DAAjIyMCAgI4f/48x44d4+2338bMzIzAwEBycnJITExkxYoVKrpSU1MBeOaZZ7TeT9StC8bGxjz22GMUFxfz1VdfScf/+te/0tTUxPLly6XPBuCJJ55ALpfz1ltvAfeTVhMmTGDChAnScuLYsWOlaYnIqVOnyM7OZty4cRw4cIBRo0YBMHfuXDw8PHBzc6Ozs1PSqY1BR9Rf/OIXA7rum2++0Ut+IOWAQ71uJjqaqDcgIIBhw4YRFxcnyQiCwEcffcSYMWNYsmQJcP8d9Yyo1dXVUlQaO3Ys58+fV/lrb28HUCn6GD58OACvv/665KQi1tbWgGp2uaamRpozaaqXNjMz0zhSEbPtDg4OanaVl5cjk8n6XUo7deoULS0tTJw4kW+//VZNj7GxMZ2dnZKjeHl5IZfLuXTpkkqHfOfOHU6fPs348eM15gJ6omtEhfuBoq6uDoDm5mbpudevX68mHxwcrLPunnz88ccAhIaGSk4qYm1tjZubm056Bh1Rb9++rXZszpw5ODg4SLtj2traKCgoIDc3V5LJyMigoaFBJ2eqrq7m4sWLQPfitbu7O3Z2dlIvdPPmTXJzc6mqqlK5Tlf9uiI6quh4crmcP/zhD6SmpnLp0iWcnJz47LPPqKys5NVXX2XEiBGA5oh6+fJl6d8BAQFa71lbW6t2TFNhwsMPPwygMlQWOwILCwusrKw06hedX6Szs5MrV64A8Le//U2rXf0VpZSWlgLdCa+lS5dqlROfz9jYmKVLlxIdHc2hQ4d44403gO7qsnv37vH000/3GzF1jajQ3Sbh/mdZWFhIV1cXpqamGt+VqakpcrmchoYGvTqEL774AkBrkuzXv/61TnoG7aji/lCZTMbzzz9PaGgolpaWGmWrq6vJyMhgz5493L59mzfeeIP333+/33ts3LiRmTNnEhISgoeHh9btcWfPnuWDDz7gs88+A7rXz4bSUb///ntANVI/99xzpKamkpqaipOTE7GxsTz00EMqPbCmOao43JwxY4Y0V9OEhYWFXjb2bEStra0q99cFsQFD9xC+tyOLPPRQ301HHBEEBAT0OWTtGdFXrFhBdHQ0iYmJbN68mWHDhknD3r6cXaSrqwvQLbKKHYmdnR3QHbmBPgtYzMzM1KYv/SEGMm3tUOxg+2NQjtra2kpiYiKWlpakp6f3Oye0trZmzZo1uLu74+fnx9GjR7l79y7btm1j7NixavI1NTVs3LgRExMTnQrsXV1dcXV1JTU1lfDwcGJjY/n73/8+4OfrjTis7PnSZ8+ezeTJk0lJSSE0NJQzZ84QFBSkIqMpooob59vb29XmNQNBHF30dCxxGaOvUk+xcYv0HJ5ZW1szYcKEAdkjdqYjRozQ+fkmT57Mb3/7W/Lz88nKysLFxYXs7GymTJkizXH7QnwH/UXWoqIiqapOHHqK8/+eHZU29IncMpmMlpYWqeMaKAOeozY0NBAUFMStW7d4//339Urc2Nvb89prrwGQlpaGk5MT69atIzMzk/Pnz3PixAnCwsKYPXs2eXl57NmzRy/bfH19WbJkCYcPH+a9997T69q+6Jn17UlQUBD19fUsW7aMrq4uKYkkommOKmbLKysrdWocutLTUcVo1dHRoTUR17vRDRs2jEmTJgH3o85AEJ9PXx2BgYFAdzRPT0+nq6tLmusPBYIgSO3J29tbmkaIQ9C6ujqN07muri4p6urjqOLoUlutga5lrjo5aktLC0lJSURERPDss88yb948pk2bxueff86ECRNwcXHR0ez7eHl5qfw/JSWFVatWsXTpUsLCwjhx4gQAzs7Oao6hC8uXLwfg7bffxtbWloULF/LMM88QHBwsJVj0pXfWt+e9hg8fTk1NDR4eHlJDFzE1NVW5HrqHXAqFgra2NinhoAlNjUYTYmTsOSS1tbWVGuK+ffvUrikoKNDoSO7u7gDs379f6/16Z4p7M3/+fADy8/O5dOmSRpn29nbu3buncszX1xdTU1OysrL417/+BXRXrw0Fra2tbNiwgczMTExMTFQyu5MnT+aXv/wlAIcPH1a79pNPPpGicEdHh8o50XF7PwsgjSYOHTqkNnq5desWycnJgGpuQRP9OmpZWRleXl68/PLLHDx4UC1pIyZM9EXXOmF9Ju496bls1NLSQlFRERcuXODTTz9l6dKlBAcHSxk/XRGHrr0d1czMDG9vbwC1aAqaIyrcz8Tu3LmT3bt3U1ZWRmtrK3l5eezduxdfX1+dyyfFD7pnRB02bJhUSpeQkMDOnTupq6ujqqqKDz/8EH9/f+m6no1o5cqVjBw5kry8PFatWkV+fj7Nzc1cvXqVuLg41q5dq7JOqAlLS0sWLVoEdGdMExMTqamp4c6dO2RnZ7Nr1y48PDzUsvkymQxfX186OzspLi5mzpw5jB8/Xqd3IDpMbW2tlF0+e/Ys0dHR/OlPf8LFxYWkpCTMzc05cuSIWlJuzZo1AGzfvp2YmBhppJOWlqaytNW73Yjz2uLiYu7du0dXVxc5OTkAvPDCCxgZGZGfn094eDhKpRLorhJbvny5NCS+detWn8/W5xy1sLCQZ599ts/es6KigubmZr0L9HVZMAcGvCe1v50qn376KevXrychIUFnndoiKnQnla5evcq8efPUzmlbR129ejUVFRXExcURFRWlsZxy5cqVOtkmNqreHae/vz9ZWVmcPHmSffv2qUTW3//+95iZmZGSkqLiMLa2tuzfv5+wsDAyMzM17jNdvHhxvzbt2bOH2tpaCgoK2LBhg0YZMeHVk8DAQOLj44H+1057InbqGRkZZGRkqJ03MjJiwYIFREVFaUzShYWFcebMGS5cuEBkZCSRkZHSOQsLCxYvXkxMTAzl5eXS2jaAo6OjtGQl1g6Lu6VsbGyIjIxk+/btHD9+nOPHj6vcc9OmTbz11ltqKxa96dNR9+7d2+8QByA9PZ1ly5b1K9cTTcMLTTQ1NZGWliZFLF3p/UI0cfbsWa5evapTogK6s5K3b9/WmBmcPXs2O3bs0Hidubk5GzZs0Di32bVrF25ubhw9elRy5JEjRzJ9+nTc3NxU1g4XLVrExIkT1WpIodtBN2zYoJZFNDIyIjo6msOHD3Py5Ek6Ojr4zW9+w/z583F1dSUvLw9ra2u1ZQJPT09Onz7NgQMHpPmVkZER9vb2zJw5U2XqYm9vz8aNG9Wq1ExNTUlJSSEuLo4zZ86oZKGdnZ1ZuHAhEydOVHsWR0dHTExMaGtr06lDEPnd736nsUOQy+VYWVnh4uLSZwZ8xIgRfPLJJyQlJXHixAnu3LmDkZER06ZNY+3atTQ1NSGXy9UisVwuJzo6mv379yMIAsOHD2fhwoXS+RdffBFXV1cOHDggJfYsLCxYuXIls2bNor29XW2NtTd9fgvh1KlT1YZrmnjqqaf0+jKxxsZGvQq73d3dOXTokM7yLS0tOpcPbtmyRRryGHgwyMvLw8/Pj8WLFxMdHf1jm/NA0OccVRcnBfT+OpaeZVu6oO+Ga3EXii5UV1frpdvAD4/Y6fdVCPJzo09H1bVYoL+MVW/0nc+KWVNd0ScBNdASSAM/DLW1taSlpTFmzBgp+2ygH0fVVvbUG0dHR71uamNjo5fz6fszGPrsmhnqHTYGBkdMTAydnZ34+/trrYr6OdKno+qawOm926E/ZDKZzvPCkSNHquxM0VW/LiVno0aNwtPTUy/dBn5Yrly5wqxZs/T6ZYSfA/3+pEVISAinTp3Sen7NmjVs2bJlQDd/5ZVX+lwekclkREdHq3z/ja40Njbi7e3dZ9r7nXfekSphDBh4kBm+devWrX0J+Pr60tDQIO0CEJHL5Wzbtq3fb7vvC09PTywsLKitrVVb8F2wYAHvvffegL+ASiaTsWTJEurq6jRW32zZsoVVq1YNSLcBA/9vdP6RqOrqarKysmhpacHZ2VltP+RgaWxspKysjFGjRuk8N9YVcT9keXk5U6ZMwdXVVe8ElQEDPyZD9rOLBgwY+OEw/OK4AQM/AQyOasDATwCDoxow8BPA4KgGDPwE+B/Utj0pYT405wAAAABJRU5ErkJggg==;shadow=0;" parent="1" vertex="1">
          <mxGeometry x="233.05" y="316.76" width="123.9" height="22.24" as="geometry" />
        </mxCell>
        <mxCell id="ebhqw7w70b1g1X7fbuDB-21" value="&lt;b&gt;&lt;font style=&quot;font-size: 24px;&quot;&gt;Extract&lt;/font&gt;&lt;/b&gt;" style="text;strokeColor=none;align=center;fillColor=none;html=1;verticalAlign=middle;whiteSpace=wrap;rounded=0;textShadow=0;shadow=0;" parent="1" vertex="1">
          <mxGeometry x="370" y="200" width="120" height="30" as="geometry" />
        </mxCell>
        <mxCell id="ebhqw7w70b1g1X7fbuDB-22" value="&lt;div style=&quot;font-size: 24px;&quot;&gt;&lt;font style=&quot;font-size: 24px;&quot;&gt;&lt;b&gt;Transform&lt;/b&gt;&lt;/font&gt;&lt;/div&gt;" style="text;strokeColor=none;align=center;fillColor=none;html=1;verticalAlign=middle;whiteSpace=wrap;rounded=0;textShadow=0;shadow=0;" parent="1" vertex="1">
          <mxGeometry x="670" y="200" width="60" height="30" as="geometry" />
        </mxCell>
        <mxCell id="ebhqw7w70b1g1X7fbuDB-23" value="&lt;b&gt;&lt;font style=&quot;font-size: 24px;&quot;&gt;Load&lt;br&gt;&lt;/font&gt;&lt;/b&gt;" style="text;strokeColor=none;align=center;fillColor=none;html=1;verticalAlign=middle;whiteSpace=wrap;rounded=0;textShadow=0;shadow=0;" parent="1" vertex="1">
          <mxGeometry x="940" y="200" width="70" height="30" as="geometry" />
        </mxCell>
        <mxCell id="ebhqw7w70b1g1X7fbuDB-69" style="rounded=0;orthogonalLoop=1;jettySize=auto;html=1;" parent="1" source="ebhqw7w70b1g1X7fbuDB-24" edge="1">
          <mxGeometry relative="1" as="geometry">
            <mxPoint x="810" y="278" as="targetPoint" />
          </mxGeometry>
        </mxCell>
        <mxCell id="ebhqw7w70b1g1X7fbuDB-24" value="JSON" style="whiteSpace=wrap;html=1;shape=mxgraph.basic.document;fillColor=#f8cecc;strokeColor=#b85450;shadow=1;" parent="1" vertex="1">
          <mxGeometry x="535" y="263.5" width="70" height="28" as="geometry" />
        </mxCell>
        <mxCell id="ebhqw7w70b1g1X7fbuDB-70" style="rounded=0;orthogonalLoop=1;jettySize=auto;html=1;entryX=0;entryY=0.336;entryDx=0;entryDy=0;entryPerimeter=0;edgeStyle=orthogonalEdgeStyle;curved=1;" parent="1" source="ebhqw7w70b1g1X7fbuDB-25" target="ebhqw7w70b1g1X7fbuDB-30" edge="1">
          <mxGeometry relative="1" as="geometry">
            <mxPoint x="790" y="300" as="targetPoint" />
            <Array as="points">
              <mxPoint x="680" y="318" />
              <mxPoint x="680" y="293" />
            </Array>
          </mxGeometry>
        </mxCell>
        <mxCell id="ebhqw7w70b1g1X7fbuDB-25" value="TSV" style="whiteSpace=wrap;html=1;shape=mxgraph.basic.document;fillColor=#f8cecc;strokeColor=#b85450;shadow=1;" parent="1" vertex="1">
          <mxGeometry x="535" y="304.5" width="70" height="28" as="geometry" />
        </mxCell>
        <mxCell id="ebhqw7w70b1g1X7fbuDB-26" value="Neo4j" style="whiteSpace=wrap;html=1;shape=mxgraph.basic.document;fillColor=#f8cecc;strokeColor=#b85450;shadow=1;" parent="1" vertex="1">
          <mxGeometry x="535" y="346.5" width="70" height="28" as="geometry" />
        </mxCell>
        <mxCell id="ebhqw7w70b1g1X7fbuDB-27" value="CSV" style="whiteSpace=wrap;html=1;shape=mxgraph.basic.document;fillColor=#f8cecc;strokeColor=#b85450;shadow=1;" parent="1" vertex="1">
          <mxGeometry x="535" y="387.5" width="70" height="28" as="geometry" />
        </mxCell>
        <mxCell id="ebhqw7w70b1g1X7fbuDB-28" value="TAR" style="whiteSpace=wrap;html=1;shape=mxgraph.basic.document;fillColor=#f8cecc;strokeColor=#b85450;shadow=1;" parent="1" vertex="1">
          <mxGeometry x="535" y="428.5" width="70" height="28" as="geometry" />
        </mxCell>
        <mxCell id="ebhqw7w70b1g1X7fbuDB-80" style="edgeStyle=orthogonalEdgeStyle;rounded=0;orthogonalLoop=1;jettySize=auto;html=1;exitX=0.284;exitY=0.989;exitDx=0;exitDy=0;exitPerimeter=0;curved=1;entryX=0.499;entryY=0.057;entryDx=0;entryDy=0;entryPerimeter=0;" parent="1" source="ebhqw7w70b1g1X7fbuDB-30" target="ebhqw7w70b1g1X7fbuDB-42" edge="1">
          <mxGeometry relative="1" as="geometry">
            <mxPoint x="820" y="420" as="targetPoint" />
            <Array as="points">
              <mxPoint x="838" y="380" />
              <mxPoint x="800" y="380" />
            </Array>
          </mxGeometry>
        </mxCell>
        <mxCell id="ebhqw7w70b1g1X7fbuDB-81" style="edgeStyle=orthogonalEdgeStyle;rounded=0;orthogonalLoop=1;jettySize=auto;html=1;exitX=0.691;exitY=1.002;exitDx=0;exitDy=0;exitPerimeter=0;curved=1;entryX=0.5;entryY=0;entryDx=0;entryDy=0;entryPerimeter=0;" parent="1" source="ebhqw7w70b1g1X7fbuDB-30" target="ebhqw7w70b1g1X7fbuDB-44" edge="1">
          <mxGeometry relative="1" as="geometry">
            <mxPoint x="939" y="410" as="targetPoint" />
            <Array as="points">
              <mxPoint x="879" y="380" />
              <mxPoint x="920" y="380" />
            </Array>
          </mxGeometry>
        </mxCell>
        <mxCell id="ebhqw7w70b1g1X7fbuDB-89" style="edgeStyle=orthogonalEdgeStyle;rounded=0;orthogonalLoop=1;jettySize=auto;html=1;entryX=0;entryY=0.5;entryDx=0;entryDy=0;entryPerimeter=0;curved=1;exitX=0.987;exitY=0.791;exitDx=0;exitDy=0;exitPerimeter=0;" parent="1" source="ebhqw7w70b1g1X7fbuDB-30" target="ebhqw7w70b1g1X7fbuDB-82" edge="1">
          <mxGeometry relative="1" as="geometry">
            <mxPoint x="1024.857142857143" y="447.1428571428571" as="targetPoint" />
            <Array as="points">
              <mxPoint x="970" y="332" />
              <mxPoint x="970" y="446" />
            </Array>
          </mxGeometry>
        </mxCell>
        <mxCell id="ebhqw7w70b1g1X7fbuDB-30" value="" style="whiteSpace=wrap;html=1;shape=mxgraph.basic.document;fillColor=#d5e8d4;strokeColor=#82b366;shadow=1;" parent="1" vertex="1">
          <mxGeometry x="810" y="263.5" width="100" height="86.5" as="geometry" />
        </mxCell>
        <mxCell id="ebhqw7w70b1g1X7fbuDB-31" value="" style="whiteSpace=wrap;html=1;shape=mxgraph.basic.document;fillColor=#d5e8d4;strokeColor=#82b366;shadow=1;" parent="1" vertex="1">
          <mxGeometry x="1050" y="263.75" width="70" height="28" as="geometry" />
        </mxCell>
        <mxCell id="ebhqw7w70b1g1X7fbuDB-32" value="" style="whiteSpace=wrap;html=1;shape=mxgraph.basic.document;fillColor=#d5e8d4;strokeColor=#82b366;shadow=1;" parent="1" vertex="1">
          <mxGeometry x="1050" y="306" width="70" height="28" as="geometry" />
        </mxCell>
        <mxCell id="ebhqw7w70b1g1X7fbuDB-33" value="" style="whiteSpace=wrap;html=1;shape=mxgraph.basic.document;fillColor=#d5e8d4;strokeColor=#82b366;shadow=1;" parent="1" vertex="1">
          <mxGeometry x="1050" y="348" width="70" height="28" as="geometry" />
        </mxCell>
        <mxCell id="ebhqw7w70b1g1X7fbuDB-34" value="" style="whiteSpace=wrap;html=1;shape=mxgraph.basic.document;fillColor=#d5e8d4;strokeColor=#82b366;shadow=1;" parent="1" vertex="1">
          <mxGeometry x="1050" y="390" width="70" height="28" as="geometry" />
        </mxCell>
        <mxCell id="ebhqw7w70b1g1X7fbuDB-35" value="" style="whiteSpace=wrap;html=1;shape=mxgraph.basic.document;fillColor=#ffe6cc;strokeColor=#d79b00;shadow=1;" parent="1" vertex="1">
          <mxGeometry x="765" y="430.88" width="70" height="28" as="geometry" />
        </mxCell>
        <mxCell id="ebhqw7w70b1g1X7fbuDB-36" value="&lt;div&gt;&lt;b&gt;SQLite&lt;/b&gt;&lt;/div&gt;&lt;b&gt;&lt;/b&gt;" style="text;strokeColor=none;align=center;fillColor=none;html=1;verticalAlign=middle;whiteSpace=wrap;rounded=0;" parent="1" vertex="1">
          <mxGeometry x="830" y="291.75" width="60" height="30" as="geometry" />
        </mxCell>
        <mxCell id="ebhqw7w70b1g1X7fbuDB-37" value="&lt;div&gt;CSV&lt;/div&gt;" style="text;strokeColor=none;align=center;fillColor=none;html=1;verticalAlign=middle;whiteSpace=wrap;rounded=0;" parent="1" vertex="1">
          <mxGeometry x="1055" y="263.5" width="60" height="30" as="geometry" />
        </mxCell>
        <mxCell id="ebhqw7w70b1g1X7fbuDB-38" value="JSONL" style="text;strokeColor=none;align=center;fillColor=none;html=1;verticalAlign=middle;whiteSpace=wrap;rounded=0;" parent="1" vertex="1">
          <mxGeometry x="1055" y="305" width="60" height="30" as="geometry" />
        </mxCell>
        <mxCell id="ebhqw7w70b1g1X7fbuDB-39" value="&lt;div&gt;GraphML&lt;/div&gt;" style="text;strokeColor=none;align=center;fillColor=none;html=1;verticalAlign=middle;whiteSpace=wrap;rounded=0;" parent="1" vertex="1">
          <mxGeometry x="1055" y="389" width="60" height="30" as="geometry" />
        </mxCell>
        <mxCell id="ebhqw7w70b1g1X7fbuDB-40" value="MeTTa" style="text;strokeColor=none;align=center;fillColor=none;html=1;verticalAlign=middle;whiteSpace=wrap;rounded=0;" parent="1" vertex="1">
          <mxGeometry x="1055" y="429.88" width="60" height="30" as="geometry" />
        </mxCell>
        <mxCell id="ebhqw7w70b1g1X7fbuDB-44" value="" style="whiteSpace=wrap;html=1;shape=mxgraph.basic.document;fillColor=#ffe6cc;strokeColor=#d79b00;shadow=1;" parent="1" vertex="1">
          <mxGeometry x="885" y="430.88" width="70" height="28" as="geometry" />
        </mxCell>
        <mxCell id="ebhqw7w70b1g1X7fbuDB-42" value="JSON" style="text;strokeColor=none;align=center;fillColor=none;html=1;verticalAlign=middle;whiteSpace=wrap;rounded=0;" parent="1" vertex="1">
          <mxGeometry x="770" y="429.38" width="60" height="26.24" as="geometry" />
        </mxCell>
        <mxCell id="ebhqw7w70b1g1X7fbuDB-41" value="&lt;div&gt;HTML&lt;/div&gt;" style="text;strokeColor=none;align=center;fillColor=none;html=1;verticalAlign=middle;whiteSpace=wrap;rounded=0;" parent="1" vertex="1">
          <mxGeometry x="890" y="427.5" width="60" height="30" as="geometry" />
        </mxCell>
        <mxCell id="ebhqw7w70b1g1X7fbuDB-46" value="&lt;div style=&quot;font-size: 20px;&quot;&gt;&lt;font style=&quot;font-size: 20px;&quot; color=&quot;#1a06cc&quot;&gt;Remote data repositories &lt;/font&gt;&lt;/div&gt;" style="text;strokeColor=none;align=center;fillColor=none;html=1;verticalAlign=middle;whiteSpace=wrap;rounded=0;shadow=0;" parent="1" vertex="1">
          <mxGeometry x="210.02" y="500" width="169.98" height="30" as="geometry" />
        </mxCell>
        <mxCell id="ebhqw7w70b1g1X7fbuDB-47" value="&lt;font color=&quot;#ff0000&quot; style=&quot;font-size: 20px;&quot;&gt;Local directory &quot;downloads&quot;&lt;br&gt;&lt;/font&gt;" style="text;strokeColor=none;align=center;fillColor=none;html=1;verticalAlign=middle;whiteSpace=wrap;rounded=0;shadow=0;" parent="1" vertex="1">
          <mxGeometry x="480" y="500" width="180" height="30" as="geometry" />
        </mxCell>
        <mxCell id="ebhqw7w70b1g1X7fbuDB-49" value="&lt;font color=&quot;#00994d&quot; style=&quot;font-size: 20px;&quot;&gt;Local directory &quot;results&quot;&lt;br&gt;&lt;/font&gt;" style="text;strokeColor=none;align=center;fillColor=none;html=1;verticalAlign=middle;whiteSpace=wrap;rounded=0;shadow=0;" parent="1" vertex="1">
          <mxGeometry x="865" y="500" width="160" height="30" as="geometry" />
        </mxCell>
        <mxCell id="ebhqw7w70b1g1X7fbuDB-72" style="rounded=0;orthogonalLoop=1;jettySize=auto;html=1;entryX=0;entryY=0.5;entryDx=0;entryDy=0;entryPerimeter=0;dashed=1;" parent="1" target="ebhqw7w70b1g1X7fbuDB-25" edge="1">
          <mxGeometry relative="1" as="geometry">
            <mxPoint x="360" y="282" as="sourcePoint" />
          </mxGeometry>
        </mxCell>
        <mxCell id="ebhqw7w70b1g1X7fbuDB-73" style="rounded=0;orthogonalLoop=1;jettySize=auto;html=1;entryX=0;entryY=0.5;entryDx=0;entryDy=0;entryPerimeter=0;dashed=1;" parent="1" target="ebhqw7w70b1g1X7fbuDB-26" edge="1">
          <mxGeometry relative="1" as="geometry">
            <mxPoint x="360" y="330" as="sourcePoint" />
          </mxGeometry>
        </mxCell>
        <mxCell id="ebhqw7w70b1g1X7fbuDB-74" style="rounded=0;orthogonalLoop=1;jettySize=auto;html=1;entryX=0;entryY=0.5;entryDx=0;entryDy=0;entryPerimeter=0;dashed=1;" parent="1" target="ebhqw7w70b1g1X7fbuDB-27" edge="1">
          <mxGeometry relative="1" as="geometry">
            <mxPoint x="360" y="390" as="sourcePoint" />
          </mxGeometry>
        </mxCell>
        <mxCell id="ebhqw7w70b1g1X7fbuDB-75" style="rounded=0;orthogonalLoop=1;jettySize=auto;html=1;entryX=0;entryY=0.5;entryDx=0;entryDy=0;entryPerimeter=0;dashed=1;shadow=0;" parent="1" target="ebhqw7w70b1g1X7fbuDB-28" edge="1">
          <mxGeometry relative="1" as="geometry">
            <mxPoint x="360" y="443" as="sourcePoint" />
          </mxGeometry>
        </mxCell>
        <mxCell id="ebhqw7w70b1g1X7fbuDB-76" style="edgeStyle=orthogonalEdgeStyle;rounded=0;orthogonalLoop=1;jettySize=auto;html=1;entryX=0;entryY=0.5;entryDx=0;entryDy=0;entryPerimeter=0;curved=1;" parent="1" source="ebhqw7w70b1g1X7fbuDB-26" target="ebhqw7w70b1g1X7fbuDB-30" edge="1">
          <mxGeometry relative="1" as="geometry">
            <Array as="points">
              <mxPoint x="690" y="360" />
              <mxPoint x="690" y="307" />
            </Array>
          </mxGeometry>
        </mxCell>
        <mxCell id="ebhqw7w70b1g1X7fbuDB-77" style="edgeStyle=orthogonalEdgeStyle;rounded=0;orthogonalLoop=1;jettySize=auto;html=1;entryX=0;entryY=0.665;entryDx=0;entryDy=0;entryPerimeter=0;curved=1;" parent="1" source="ebhqw7w70b1g1X7fbuDB-27" target="ebhqw7w70b1g1X7fbuDB-30" edge="1">
          <mxGeometry relative="1" as="geometry">
            <Array as="points">
              <mxPoint x="700" y="402" />
              <mxPoint x="700" y="321" />
            </Array>
          </mxGeometry>
        </mxCell>
        <mxCell id="ebhqw7w70b1g1X7fbuDB-78" style="edgeStyle=orthogonalEdgeStyle;rounded=0;orthogonalLoop=1;jettySize=auto;html=1;entryX=0;entryY=0.824;entryDx=0;entryDy=0;entryPerimeter=0;curved=1;" parent="1" source="ebhqw7w70b1g1X7fbuDB-28" target="ebhqw7w70b1g1X7fbuDB-30" edge="1">
          <mxGeometry relative="1" as="geometry">
            <Array as="points">
              <mxPoint x="720" y="442" />
              <mxPoint x="720" y="335" />
            </Array>
          </mxGeometry>
        </mxCell>
        <mxCell id="ebhqw7w70b1g1X7fbuDB-83" value="SQL" style="text;strokeColor=none;align=center;fillColor=none;html=1;verticalAlign=middle;whiteSpace=wrap;rounded=0;" parent="1" vertex="1">
          <mxGeometry x="1055" y="345.5" width="60" height="30" as="geometry" />
        </mxCell>
        <mxCell id="ebhqw7w70b1g1X7fbuDB-90" value="&lt;font style=&quot;font-size: 24px;&quot;&gt;&lt;b&gt;Analyze&lt;/b&gt;&lt;/font&gt;" style="text;strokeColor=none;align=center;fillColor=none;html=1;verticalAlign=middle;whiteSpace=wrap;rounded=0;textShadow=0;labelBackgroundColor=default;" parent="1" vertex="1">
          <mxGeometry x="825" y="385.5" width="70" height="30" as="geometry" />
        </mxCell>
        <mxCell id="YwlocGe1yXT-rboS6VGF-1" value="&lt;font style=&quot;font-size: 24px;&quot;&gt;&lt;b&gt;Analyze&lt;/b&gt;&lt;/font&gt;" style="text;strokeColor=none;align=center;fillColor=none;html=1;verticalAlign=middle;whiteSpace=wrap;rounded=0;textShadow=0;labelBackgroundColor=default;" vertex="1" parent="1">
          <mxGeometry x="825" y="390" width="70" height="30" as="geometry" />
        </mxCell>
        <mxCell id="FXCXVvDxTQtwc45PbP1s-115" value="Icons" style="" parent="0" />
      </root>
    </mxGraphModel>
  </diagram>
</mxfile>
